<svg width="40" height="40" viewBox="0 0 40 40" fill="none" xmlns="http://www.w3.org/2000/svg">
<circle cx="20" cy="20" r="20" fill="#FEC333"/>
<path d="M19.9 28.8C24.8153 28.8 28.8 24.8153 28.8 19.9C28.8 14.9847 24.8153 11 19.9 11C14.9847 11 11 14.9847 11 19.9C11 24.8153 14.9847 28.8 19.9 28.8Z" stroke="white" stroke-width="1.3" stroke-miterlimit="10" stroke-linecap="round" stroke-linejoin="round"/>
<path d="M15.6392 23V17.1818H17.7131C18.1638 17.1818 18.5379 17.2595 18.8352 17.4148C19.1345 17.5701 19.358 17.785 19.5057 18.0597C19.6534 18.3324 19.7273 18.6477 19.7273 19.0057C19.7273 19.3617 19.6525 19.6752 19.5028 19.946C19.3551 20.215 19.1316 20.4242 18.8324 20.5739C18.535 20.7235 18.161 20.7983 17.7102 20.7983H16.1392V20.0426H17.6307C17.9148 20.0426 18.1458 20.0019 18.3239 19.9205C18.5038 19.839 18.6354 19.7206 18.7188 19.5653C18.8021 19.41 18.8438 19.2235 18.8438 19.0057C18.8438 18.786 18.8011 18.5956 18.7159 18.4347C18.6326 18.2737 18.5009 18.1506 18.321 18.0653C18.143 17.9782 17.9091 17.9347 17.6193 17.9347H16.517V23H15.6392ZM18.5114 20.375L19.9489 23H18.9489L17.5398 20.375H18.5114ZM20.8873 24.6364V18.6364H21.7168V19.3438H21.7878C21.8371 19.2528 21.9081 19.1477 22.0009 19.0284C22.0937 18.9091 22.2225 18.8049 22.3873 18.7159C22.552 18.625 22.7698 18.5795 23.0407 18.5795C23.393 18.5795 23.7073 18.6686 23.9839 18.8466C24.2604 19.0246 24.4772 19.2812 24.6344 19.6165C24.7935 19.9517 24.8731 20.3551 24.8731 20.8267C24.8731 21.2983 24.7945 21.7027 24.6373 22.0398C24.4801 22.375 24.2642 22.6335 23.9895 22.8153C23.7149 22.9953 23.4015 23.0852 23.0492 23.0852C22.7841 23.0852 22.5672 23.0407 22.3986 22.9517C22.232 22.8627 22.1013 22.7585 22.0066 22.6392C21.9119 22.5199 21.839 22.4138 21.7878 22.321H21.7367V24.6364H20.8873ZM21.7197 20.8182C21.7197 21.125 21.7642 21.3939 21.8532 21.625C21.9422 21.8561 22.071 22.0369 22.2395 22.1676C22.4081 22.2964 22.6145 22.3608 22.8589 22.3608C23.1127 22.3608 23.3248 22.2936 23.4952 22.1591C23.6657 22.0227 23.7945 21.8381 23.8816 21.6051C23.9706 21.3722 24.0151 21.1098 24.0151 20.8182C24.0151 20.5303 23.9716 20.2718 23.8844 20.0426C23.7992 19.8134 23.6704 19.6326 23.4981 19.5C23.3276 19.3674 23.1145 19.3011 22.8589 19.3011C22.6127 19.3011 22.4043 19.3646 22.2339 19.4915C22.0653 19.6184 21.9375 19.7955 21.8503 20.0227C21.7632 20.25 21.7197 20.5152 21.7197 20.8182Z" fill="white"/>
</svg>
