<svg width="24" height="24" viewBox="0 0 24 24" fill="none" xmlns="http://www.w3.org/2000/svg">
<g clip-path="url(#clip0_378_1254)">
<path d="M11.9998 16.0003C12.4655 16.0012 12.9249 15.8937 13.3418 15.6863L15.3418 14.6863C16.3612 14.1801 17.0042 13.1384 16.9998 12.0003V9.03332C17.0034 7.89618 16.3604 6.85583 15.3418 6.35033L13.3418 5.35035C12.4968 4.93035 11.5038 4.93035 10.6588 5.35035L8.65881 6.35033C7.63984 6.85555 6.99648 7.89599 6.99981 9.03332V12.0003C6.99615 13.1377 7.63904 14.1785 8.65782 14.6843L10.6578 15.6843C11.0746 15.8924 11.534 16.0006 11.9998 16.0003ZM8.99982 12.0003V9.03332C9.00142 8.93132 9.01862 8.83011 9.05082 8.73332L11.2308 9.8233C11.715 10.0653 12.2847 10.0653 12.7689 9.8233L14.9489 8.73332C14.9811 8.83011 14.9983 8.93132 14.9999 9.03332V12.0003C15.0015 12.3797 14.7869 12.727 14.4469 12.8953L12.4469 13.8953C12.1649 14.0348 11.8339 14.0348 11.5519 13.8953L9.55187 12.8953C9.21217 12.7267 8.99804 12.3795 8.99982 12.0003ZM18.9998 22.0003H16.2908L19.7778 18.7783C24.0737 14.4826 24.0737 7.5178 19.778 3.22194C15.4823 -1.07392 8.51757 -1.07396 4.22171 3.22171C-0.0741445 7.51738 -0.0742385 14.4823 4.22148 18.7781C4.2309 18.7875 7.70884 22.0003 7.70884 22.0003H4.99984C4.44756 22.0003 3.99986 22.448 3.99986 23.0003C3.99986 23.5526 4.44756 24.0003 4.99984 24.0003H18.9999C19.5521 24.0003 19.9998 23.5526 19.9998 23.0003C19.9998 22.448 19.5521 22.0003 18.9998 22.0003ZM5.63584 4.6363C9.14284 1.11355 14.8416 1.1008 18.3643 4.6078C21.8871 8.1148 21.8998 13.8135 18.3928 17.3363L14.4078 21.0173C13.0477 22.2993 10.9219 22.2918 9.57086 21.0003L5.63584 17.3643C2.12654 13.8473 2.12659 8.15333 5.63584 4.6363Z" fill="#1C2D57"/>
</g>
<defs>
<clipPath id="clip0_378_1254">
<rect width="24" height="24" fill="white"/>
</clipPath>
</defs>
</svg>
